# xmcd
#
# Track frame offsets:
#	150
#	16970
#	32475
#
# Disc length: 696 seconds
#
# Revision: 0
# Processed by: cddbd v1.5.2PL0 Copyright (c) Steve Scherf et al.
# Submitted via: audiograbber 1.83.01
#
DISCID=1602b603
DTITLE=Slade vs Flush - CD Single
DYEAR=1998
DGENRE=
TTITLE0=Merry Xmas Everybody '98 Remix (Flush Edit)
TTITLE1=Merry Xmas Everybody (Original Version)
TTITLE2=Cum On Feel The Noize
EXTD=
EXTT0=
EXTT1=
EXTT2=
PLAYORDER=
